<svg width="1926" height="543" viewBox="0 0 1926 543" fill="none" xmlns="http://www.w3.org/2000/svg">
<path d="M1724.5 542C1730.6 542 1733.3 542.1 1730.5 542.3C1727.8 542.5 1722.8 542.5 1719.5 542.3C1716.2 542.1 1718.4 542 1724.5 542ZM258 1.69922C267.1 1.69922 280.5 2.29962 287.8 3.09961C295 3.89961 304.5 5.29961 308.7 6.09961C313 6.99961 319.2 8.29962 322.5 9.09961C325.8 9.89961 333.7 12.3 340 14.5C346.3 16.6 355.1 19.8998 359.5 21.7998C363.9 23.7998 371.1 27.0994 375.5 29.3994C379.9 31.5994 388.5 36.5996 394.5 40.5996C400.5 44.5996 408 49.9 411 52.5C414 55 419.9 59.9993 424 63.6992C428.1 67.3992 435.8 75.1996 441 81.0996C446.2 86.9995 453.1 95.4994 456.3 99.8994C459.5 104.399 464.6 112.1 473.2 126.1L470.4 128.1C468.9 129.2 457.6 136.499 445.3 144.399C433 152.199 422.8 158.6 422.5 158.6C422.2 158.6 419.2 160.4 415.8 162.6C412.3 164.8 409.3 166.699 409 166.699C408.7 166.699 406.4 162.999 403.8 158.399C401.1 153.799 395.8 145.8 391.9 140.6C388 135.4 382.1 128.3 378.7 124.8C375.3 121.3 368.7 115.399 364 111.699C359.3 107.999 352.8 103.2 349.5 101.1C346.2 98.9996 340.1 95.6 336 93.5C331.9 91.5 325.1 88.3998 321 86.7998C316.9 85.1998 309.2 82.6992 304 81.1992C298.8 79.7992 289.4 77.9996 283.2 77.0996C277.1 76.2996 265.6 75.5996 257.8 75.5996C249.9 75.5996 238.5 76.2 232.5 77C226.5 77.8 219.4 79 216.8 79.5C214.1 80.1001 206.9 82.1993 200.8 84.1992C194.6 86.1992 185.7 89.5998 181 91.7998C176.3 93.9998 169.8 97.3998 166.5 99.2998C163.2 101.3 156.5 105.999 151.5 109.699C146.5 113.399 138.9 119.899 134.6 124.199C130.2 128.599 124.6 134.6 122.1 137.6C119.6 140.7 114.5 147.6 110.9 153.1C107.2 158.6 102.6 166.099 100.6 169.899C98.5996 173.599 95.1996 180.999 93.0996 186.399C90.8996 191.699 87.6002 201.5 85.7002 208.1C83.8002 214.7 81.2 225.7 80 232.6C78.5 241 77.5998 251.1 77.2998 263.6C76.9998 274.4 77.2004 287.1 77.9004 294.1C78.5004 300.7 80.2 311.5 81.5 318.1C82.8 324.7 84.9998 333.7 86.2998 338.1C87.5998 342.5 90.4 350.4 92.5 355.6C94.6 360.8 98.1004 368.7 100.4 373.1C102.7 377.5 106.6 384.3 109.1 388.1C111.6 392 116.4 398.5 119.7 402.6C123 406.7 130.4 414.6 136.1 420C141.8 425.4 151 433 156.5 436.8C162 440.6 170.8 445.9 176 448.6C181.2 451.3 189.8 454.999 195 456.899C200.2 458.799 208.3 461.3 213 462.5C217.7 463.6 226.2 465.2 232 466.1C237.8 466.9 249.4 467.6 257.8 467.6C266.1 467.6 277.4 467.1 282.8 466.5C288.1 465.9 296.1 464.6 300.5 463.6C304.9 462.6 312.3 460.5 317 459.1C321.7 457.6 330.5 454.099 336.5 451.199C342.5 448.299 351.1 443.599 355.5 440.699C359.9 437.799 366.2 433.1 369.5 430.3C372.8 427.6 378.8 421.899 382.8 417.699C386.8 413.499 392.5 406.7 395.4 402.6C398.4 398.5 403.1 390.8 405.8 385.6C408.6 380.4 412.4 371.699 414.4 366.399C416.4 360.999 419.1 351.999 420.5 346.399C421.9 340.699 423 335.1 423 331.6H257V261.6H378C473.798 261.6 499.099 261.899 499.7 262.899C500 263.499 500.4 274 500.4 286.1C500.5 298.2 500.1 311.5 499.7 315.6C499.3 319.7 498.2 328.3 497.4 334.6C496.5 340.9 494.8 350.8 493.5 356.6C492.2 362.4 489.5 372.399 487.6 378.899C485.6 385.299 481.6 396.099 478.7 402.899C475.8 409.599 470.5 420.3 467 426.6C463.4 432.9 457.9 441.7 454.6 446.1C451.3 450.5 445.6 457.7 442 462.1C438.3 466.5 431.7 473.5 427.4 477.6C423.1 481.7 416.4 487.699 412.5 490.699C408.6 493.799 401 499.3 395.5 503C390 506.7 378.7 513 370.5 517C362.3 521.1 351.2 525.8 346 527.6C340.8 529.3 332.5 531.8 327.5 533.1C322.5 534.4 313.5 536.4 307.5 537.5C301.5 538.6 290 539.999 282 540.699C273 541.399 260.3 541.7 248.5 541.3C238 541 225 539.999 219.5 539.199C214 538.299 205.9 537 201.5 536.1C197.1 535.2 189.5 533.4 184.5 532.1C179.5 530.7 171.7 528.2 167 526.5C162.3 524.8 156.5 522.499 154 521.399C151.5 520.299 144.5 516.9 138.5 513.8C132.5 510.8 124.5 506.299 120.7 503.899C117 501.599 110.5 497.099 106.3 493.899C102 490.799 95.5999 485.799 92 482.699C88.4 479.599 83.9996 475.8 82.0996 474.1C80.1994 472.499 74.2 466.099 68.7002 460.1C63.3002 454.1 55.5996 444.6 51.5996 439.1C47.6996 433.6 41.7002 424.4 38.2002 418.6C34.7002 412.8 29.6004 403.4 26.9004 397.6C24.1004 391.8 19.9004 381.599 17.4004 374.899C15.0004 368.099 11.4996 356.599 9.59961 349.399C7.69962 342.099 5.1996 330.7 4.09961 324.1C2.99961 317.5 1.6 307.1 1 301.1C0.5 295.1 0 282 0 272.1C0 262.2 0.5 249.1 1 243.1C1.6 237.1 2.69961 227.8 3.59961 222.6C4.39961 217.4 6.19961 208.1 7.59961 202.1C8.9996 196.1 11.1996 187.3 12.5996 182.6C14.0996 177.9 17.3002 168.9 19.7002 162.6C22.2002 156.3 26.6 146.4 29.5 140.6C32.4 134.8 37.4 126.1 40.5 121.1C43.6 116.1 49.9 107.1 54.5 101.1C59.1 95.0996 67.1996 85.3992 72.5996 79.6992C78.0996 73.9992 87 65.4994 92.5 60.8994C98 56.2994 108.1 48.7992 115 44.1992C121.9 39.4992 132.7 33.0998 139 29.7998C145.3 26.4998 155.8 21.6992 162.3 19.1992C168.7 16.6992 179.7 12.9996 186.8 11.0996C193.8 9.19961 204.7 6.79961 211 5.59961C217.3 4.49961 226.8 3.19981 232 2.7998C237.2 2.2998 248.9 1.79922 258 1.69922ZM706.5 149.6C711.5 149.1 722 148.999 730 149.199C738 149.499 749.5 150.599 755.5 151.699C761.5 152.799 771.9 155.499 778.5 157.699C785.1 159.899 793.9 163.499 798 165.699C802.1 167.999 808.6 171.899 812.5 174.399C816.3 176.999 823.3 182.8 828 187.3C832.7 191.8 838.8 198.6 841.5 202.5C844.299 206.299 846.799 209.499 847.3 209.5C847.7 209.6 848 198 848 158.1H877.086C878.895 158.034 884.668 158 893.5 158C902.337 158 908.243 158.034 910.274 158.1H922L921.9 161.6C921.9 163.646 921.857 164.428 921.568 164.148C922.339 165.798 923 167.411 923 167.8C923 168.2 922.5 168.3 922 168C921.4 167.8 921 168.2 921 169C921 169.9 921.4 170.3 922 170C922.6 169.8 923 171.5 923 174.5C923 177.5 922.6 179.3 922 179C921.4 178.8 921.5 179.499 922.2 180.699C923.2 182.399 923.2 182.899 922.2 183.199C921.5 183.399 921 185.2 921 187.5C921 190.1 921.4 191.5 922.2 191.5C923.1 191.5 923.2 191.8 922.3 192.8C921.7 193.501 921 200.901 920.6 211C920.222 219.878 919.755 228.755 919.451 231.567C919.505 231.249 919.556 230.926 919.6 230.6C919.9 227.6 920.6 217.9 921 209.1C921.4 200.302 921.8 269.265 922 531.399L922.3 519L922.7 524.5C922.9 527.499 922.8 530.499 922.5 531.199C922.455 531.312 922.31 531.41 921.999 531.503C921.999 531.535 922 531.567 922 531.6H921.605C918.305 532.245 904.104 532.339 849.5 532L897.833 531.6H849.3C848.8 531.596 848.3 519.693 847.5 478.5L843 484.699C840.5 488.099 834.2 495.199 829 500.399C823 506.399 815.4 512.599 808.5 517.199C802.5 521.199 795.3 525.4 792.5 526.6C789.8 527.9 785.7 529.6 783.5 530.6C781.3 531.6 776.3 533.4 772.5 534.5C768.7 535.7 761.2 537.599 756 538.699C749.4 540.099 741 540.9 728.5 541.3C717 541.7 706.7 541.4 700 540.6C694.2 540 684.3 538.1 678 536.6C671.7 535 663.6 532.599 660 531.199C656.4 529.899 650.1 527.2 646 525.3C641.9 523.4 634.7 519.5 630 516.6C625.3 513.7 618.8 509.3 615.5 506.8C612.2 504.3 606.2 499.299 602.1 495.699C598.1 491.999 591.599 485.4 587.6 480.8C583.7 476.2 577.7 468.3 574.2 463.3C570.7 458.2 565.9 450.5 563.5 446.1C561.2 441.7 557.4 433.8 555.2 428.6C553.1 423.4 550.3 415.5 549 411.1C547.8 406.7 545.9 399.7 544.9 395.6C543.9 391.5 542.4 382 541.5 374.6C540.2 364.3 539.9 356.1 540.3 340.1C540.6 325.2 541.4 315.8 542.8 307.6C543.9 301.3 546 291.8 547.5 286.6C549 281.4 551.8 272.8 553.7 267.6C555.6 262.4 559.6 253.4 562.6 247.6C565.5 241.8 570.6 233.1 573.9 228.1C577.2 223.1 583.4 215.1 587.7 210.1C592 205.1 599.6 197.599 604.5 193.199C609.5 188.899 618.2 182.199 624 178.399C629.8 174.599 639 169.3 644.5 166.6C650 164 659.2 160.2 665 158.3C670.8 156.4 680.5 153.8 686.5 152.6C692.5 151.4 701.5 150 706.5 149.6ZM1724.9 541C1734.5 541 1738.3 541.1 1733.4 541.3C1728.4 541.5 1720.6 541.5 1715.9 541.3C1711.2 541.1 1715.3 541 1724.9 541ZM1710 149.199C1711.4 148.899 1721.5 148.9 1732.5 149.1C1747.6 149.4 1754.8 149.899 1762 151.399C1767.2 152.499 1775.6 154.799 1780.5 156.399C1785.4 157.999 1792.9 160.999 1797 162.899C1801.1 164.799 1808.7 169.2 1813.7 172.5C1818.8 175.9 1827.1 182.5 1832.1 187.399C1837.1 192.199 1843.5 199.2 1851.5 210L1852 157.6H1926V532.6L1888.8 532.5C1868.3 532.4 1852.6 532.099 1854 531.699C1854.07 531.678 1854.15 531.655 1854.21 531.635C1853.47 531.443 1852.75 530.839 1852.5 530.1C1852.2 529.3 1852.1 519.999 1852.2 509.399L1852.4 490.1L1852.7 509.6C1852.82 516.536 1852.93 521.081 1853.12 524.108C1853.03 521.588 1853 518.01 1853 512.899C1853 503.599 1852.7 492.3 1851.7 479.1L1848.7 482.6C1847.1 484.5 1846.1 485.4 1846.6 484.6C1847.3 483.3 1847.2 483.3 1845.6 484.6C1845.08 485.061 1844.66 485.655 1844.44 486.172C1844.77 485.878 1845.06 485.584 1845.3 485.3C1847.2 483.2 1847.2 483.2 1845.5 486.1C1844.5 487.799 1842.7 490 1841.4 491.1C1840.1 492.299 1839.1 493.499 1839 493.899C1839 494.299 1836.4 497.3 1833.2 500.6C1830.1 503.899 1827.2 506.399 1826.7 506.1C1826.3 505.9 1825 506.999 1823.7 508.699C1822.5 510.299 1820.9 511.699 1820.2 511.699C1819.6 511.699 1818.8 512.3 1818.5 513.1C1818.2 514 1817.3 514.6 1816.5 514.6C1815.7 514.6 1815 515.1 1815 515.6C1815 516.2 1814.5 516.4 1814 516.1C1813.4 515.9 1812.8 516.3 1812.5 517.1C1812.2 518 1811.3 518.6 1810.5 518.6C1809.7 518.6 1809 519.1 1809 519.6C1809 520.2 1808.5 520.4 1808 520.1C1807.4 519.9 1807 520.1 1807 520.6C1807 521.2 1806.5 521.4 1806 521.1C1805.4 520.9 1804.1 521.5 1803 522.6C1801.9 523.8 1800.3 524.7 1799.5 524.6C1798.7 524.6 1798 524.999 1798 525.399C1798 525.799 1796.9 526.699 1795.5 527.399C1794.1 528.099 1792.1 528.6 1791 528.6C1789.9 528.6 1789 529.1 1789 529.6C1789 530.2 1788.2 530.299 1787.2 529.899C1786.2 529.499 1785.7 529.599 1786.1 530.199C1786.5 530.699 1783.5 532 1779 533.1C1774.6 534.199 1771.3 535.499 1771.5 535.899C1771.8 536.299 1770.8 536.299 1769.2 535.899C1767.6 535.499 1766.7 535.599 1767.1 536.199C1767.5 536.699 1766.2 537.199 1764.1 537.399C1762.1 537.499 1759.8 537.9 1759 538.3C1758.2 538.6 1756.6 539.099 1755.5 539.399C1754.4 539.599 1751.7 539.999 1749.5 540.199C1747.3 540.499 1736.4 540.799 1725.3 540.899C1712.8 541.099 1705.4 540.799 1705.8 540.199C1706.2 539.599 1704.9 539.5 1702.2 540C1699.1 540.5 1698.2 540.3 1698.7 539.5C1699.3 538.6 1698.4 538.399 1695.7 538.699C1693.7 538.999 1692 538.799 1692 538.399C1692 538 1691.2 537.699 1690.2 537.699C1689.76 537.699 1688.21 537.358 1686.08 536.819C1689.09 537.71 1690.12 538.24 1688.2 538C1685.9 537.7 1678 535.5 1670.7 533.1C1670.05 532.885 1669.38 532.661 1668.71 532.431C1667.68 532.288 1667 532.269 1666.8 532.399C1666 532.799 1665.8 532.7 1666.2 532.1C1666.32 531.948 1666.28 531.753 1666.12 531.535C1664.08 530.816 1662.02 530.059 1660.06 529.317C1659.31 529.26 1658.73 529.318 1658.5 529.5C1658 529.8 1657.8 529.7 1658.2 529.1C1658.31 528.963 1658.27 528.783 1658.12 528.574C1655.07 527.392 1652.41 526.291 1650.71 525.494C1650.22 525.402 1649.87 525.366 1649.7 525.399C1649.37 525.483 1649.24 525.288 1649.39 524.872C1647.31 523.872 1644.77 522.556 1642.33 521.243C1642.1 521.269 1641.92 521.32 1641.8 521.399C1641 521.799 1640.8 521.7 1641.2 521.1C1641.29 520.986 1641.31 520.838 1641.26 520.663C1639.51 519.707 1637.85 518.779 1636.5 518C1636.07 517.748 1635.62 517.471 1635.13 517.176C1634.96 517.195 1634.81 517.234 1634.7 517.3C1634 517.7 1633.8 517.6 1634.2 517.1C1634.31 516.991 1634.32 516.827 1634.24 516.622C1631.81 515.108 1628.91 513.203 1626.26 511.36C1625.9 511.287 1625.63 511.294 1625.5 511.399C1624.9 511.699 1624.8 511.7 1625.2 511.3C1625.36 511.17 1625.44 510.997 1625.45 510.799C1624.2 509.924 1623.02 509.075 1622 508.3C1618.57 505.771 1614.42 502.508 1611.7 500.198V500.199C1611.32 500.39 1611.12 500.217 1611.19 499.766C1610.78 499.414 1610.42 499.089 1610.1 498.8C1608.52 497.413 1605.76 494.806 1603 492.101C1602.69 492.393 1601.1 491.196 1599.5 489.6C1597.8 488 1596.8 486.6 1597.2 486.6C1597.33 486.599 1597.35 486.483 1597.28 486.27C1595.25 484.078 1592.95 481.508 1590.88 479.146C1590.27 479.332 1589.36 478.842 1588.7 478C1587.7 476.6 1587.7 476.4 1588.7 477C1588.86 477.067 1589.01 477.116 1589.15 477.152C1588.31 476.175 1587.54 475.275 1586.9 474.5C1585.68 472.986 1584.27 471.151 1582.88 469.312C1582.69 469.294 1582.52 469.084 1582.45 468.733C1580.69 466.397 1579.02 464.105 1577.9 462.5C1576.09 459.697 1573.38 455.422 1571.55 452.411C1571.44 452.355 1571.35 452.349 1571.3 452.399C1571.01 452.789 1571 452.61 1571.28 451.955C1571.18 451.799 1571.09 451.648 1571 451.5C1569.3 448.4 1566.2 442.6 1564.2 438.5C1563.43 436.963 1562.56 435.117 1561.69 433.208C1561.39 433.253 1561.29 433.036 1561.42 432.618C1560.44 430.455 1559.48 428.244 1558.71 426.336C1558.67 426.351 1558.63 426.372 1558.6 426.399C1558.1 426.799 1558 426.599 1558.3 425.899C1558.35 425.817 1558.38 425.706 1558.4 425.569C1558.18 425.009 1557.98 424.483 1557.8 424C1556.77 421.328 1555.56 417.951 1554.64 415.222C1554.44 415.274 1554.36 415.021 1554.42 414.566C1554.09 413.578 1553.81 412.699 1553.6 412C1552.7 409.2 1551.1 403.6 1550.1 399.5C1549.1 395.3 1547.9 389.5 1547.6 386.5C1547.43 385.051 1547.49 384.711 1547.76 385.392C1547.77 385.203 1547.79 385.005 1547.8 384.8C1548.1 383.3 1547.6 381.799 1546.8 381.399C1546.1 380.999 1545.9 380.699 1546.5 380.699C1546.64 380.672 1546.75 380.535 1546.85 380.309C1546.49 379.424 1545.81 375.599 1545.2 371.1C1544.5 365.8 1544 355.6 1544 348.3C1544 341 1544.3 332 1544.6 328.3C1544.9 324.6 1545.3 321.5 1545.4 321.5C1545.45 321.518 1545.53 324.58 1545.59 329.437C1545.68 322.695 1545.82 318.31 1545.99 318.199H1546.03C1546.35 318.094 1547.12 314.87 1547.7 310.8C1548.09 308.489 1548.77 305.027 1549.55 301.465C1548.68 305.258 1547.92 308.764 1547.5 311C1546.1 318.399 1546 318.6 1546.5 313C1546.8 309.8 1547.7 303.7 1548.6 299.5C1549.4 295.4 1551.4 287.5 1553.1 282C1553.2 281.667 1553.3 281.33 1553.4 280.988C1553.29 280.413 1553.37 280.137 1553.65 280.156C1553.91 279.291 1554.18 278.41 1554.46 277.529C1554.47 277.311 1554.51 277.162 1554.6 277.087C1555.93 272.932 1557.34 268.871 1558.2 266.8C1559.4 263.9 1560.4 261.6 1560.5 261.8C1560.5 262.002 1559.3 266.001 1557.8 270.6C1557.34 271.957 1556.79 273.683 1556.21 275.608C1556.83 274.393 1557.56 272.54 1558.2 270.399C1559.5 266.4 1560.5 262.7 1560.5 262.1C1560.5 261.6 1561.3 260.399 1562.2 259.399C1562.88 258.72 1563.37 257.765 1563.53 256.846C1562.41 258.924 1561.62 260.173 1561.5 260C1561.31 259.874 1562.07 257.887 1563.36 255.036C1563.25 254.415 1563.39 254.139 1563.75 254.202C1563.97 253.719 1564.2 253.215 1564.45 252.695C1564.34 252.286 1564.41 252.119 1564.69 252.181C1564.93 251.681 1565.18 251.168 1565.44 250.646C1565.35 250.285 1565.42 250.131 1565.67 250.175C1565.81 249.886 1565.95 249.593 1566.1 249.3C1566.21 249.077 1566.33 248.851 1566.44 248.621C1566.21 247.863 1566.28 247.563 1566.7 247.899C1566.72 247.923 1566.75 247.938 1566.78 247.945C1568.46 244.668 1570.51 240.861 1572.38 237.565C1572.39 237.357 1572.37 237.198 1572.3 237.1C1572 236.6 1572.1 236.5 1572.6 236.899C1572.64 236.93 1572.69 236.939 1572.75 236.933C1573.85 235.009 1574.87 233.291 1575.7 232C1577.71 228.941 1580.44 225.042 1582.42 222.437C1582.41 222.422 1582.41 222.41 1582.4 222.399C1582.2 221.999 1582.5 221.299 1583.2 220.899C1583.49 220.746 1583.69 220.662 1583.83 220.646C1584.97 219.267 1586.06 218.01 1586.78 217.251C1586.24 217.446 1587.43 216.178 1589.5 214.199C1591.7 212.099 1592.6 211 1589.5 213.1L1591.5 210.899C1592.6 209.699 1593.8 208.899 1594.2 209.199C1594.7 209.399 1595 209.2 1595 208.6C1595 208.1 1597.8 204.799 1601.2 201.399C1604.6 198 1607.7 195.299 1608.2 195.399C1608.6 195.499 1608.8 195.299 1608.5 194.899C1608.3 194.499 1610.8 191.899 1614.3 189.1C1617.7 186.3 1622.3 182.7 1624.5 181.1C1626.7 179.5 1632.5 175.799 1637.5 172.899C1640.51 171.115 1643.38 169.559 1645.27 168.602C1645.3 168.519 1645.31 168.451 1645.3 168.399C1645.14 168.078 1645.56 167.951 1646.25 168.121C1646.9 167.811 1647.34 167.626 1647.5 167.6C1647.78 167.6 1647.62 167.913 1647.11 168.419C1648.05 168.772 1648.25 168.618 1647.8 167.8C1647.3 167.1 1647.6 166.4 1648.5 166.1C1649.25 165.818 1649.74 166.064 1649.55 166.508L1649.45 166.691C1649.26 167.135 1649.75 167.381 1650.5 167.1C1651.25 166.818 1651.74 166.185 1651.55 165.695L1651.45 165.504C1651.26 165.014 1651.75 164.381 1652.5 164.1C1653.3 163.8 1654.8 163.9 1655.8 164.3C1657 164.8 1657.3 164.7 1656.8 163.8C1656.3 163.1 1656.7 162.4 1658 162.1C1659.1 161.8 1660.6 161.9 1661.3 162.3C1662.1 162.833 1662.27 162.666 1661.8 161.8C1661.2 161 1663.2 159.9 1668.7 158.1C1673 156.8 1680.1 154.799 1684.5 153.699C1688.9 152.599 1695.9 151.299 1700 150.699C1704.1 150.099 1708.6 149.399 1710 149.199ZM1407.6 160.899C1409 159.999 1418.1 159.8 1478.5 160.1L1478.2 343.6C1478.1 396.425 1477.93 444.408 1477.78 478.307C1477.97 456.049 1478.21 425.384 1478.5 384L1479.5 532.1L1405 532.6L1405.4 464.3C1405.46 456.612 1405.52 448.726 1405.58 440.925C1405.46 441.221 1405.4 439.022 1405.4 435.1C1405.4 430.379 1405.49 428.6 1405.66 430.688C1405.87 404.324 1406.06 380.436 1406.2 370.5C1406.3 356.5 1406.5 382.6 1406.9 512.1V512L1408.31 513.127C1407.93 512.806 1407.52 512.464 1407.1 512.1L1406.4 337.199C1405.6 165.005 1405.7 162.099 1407.6 160.899ZM1038.4 532C1059.3 532 1068.1 532.1 1057.9 532.3C1047.7 532.5 1030.6 532.5 1019.9 532.3C1009.2 532.1 1017.5 532 1038.4 532ZM1306.5 0.599609C1314.2 0.299609 1320.9 0.199414 1321.4 0.399414C1321.8 0.600438 1322.2 3.80009 1322.1 7.69922C1322.01 11.2262 1321.67 14.0169 1321.17 14.5186C1321.24 14.5847 1321.32 14.6457 1321.4 14.6992C1322.2 15.2991 1322.1 15.5996 1321.2 15.5996C1320.6 15.5996 1320 16.0996 1320 16.5996C1320 17.0996 1320.4 17.3996 1321 17.0996C1321.5 16.7996 1322 17.0996 1322 17.5996C1322 18.0996 1321.4 18.7999 1320.7 19C1319.8 19.3 1319.9 19.7 1321 20.5C1322 21.2332 1322.07 21.5995 1321.2 21.5996C1320.6 21.5996 1320.1 22.1998 1320.2 22.7998C1320.4 23.4998 1320.9 24.3998 1321.5 24.7998C1322.1 25.2997 1322 25.5995 1321.2 25.5996C1321.06 25.5996 1320.93 26.229 1320.81 27.6748C1321.26 43.6151 1321.61 149.421 1321.7 276.6C1322 508.096 1321.9 527.699 1320.4 529.3C1318.8 531 1318.9 531.1 1320.6 531.8C1321.6 532.2 1305.4 532.399 1284.5 532.399C1266.29 532.312 1253.16 532.074 1256.77 531.286L1247 531.6L1247.3 523.1L1248 530.6L1257.8 531.11C1258.26 531.044 1258.83 530.973 1259.5 530.899L1253.7 530.8C1250.6 530.7 1248 530.5 1248 530.3C1247.95 530.254 1247.89 504.936 1247.8 463.408C1247.77 466.543 1247.74 469.491 1247.7 472.1C1247.6 484.2 1247.5 474.7 1247.5 451.1C1247.5 427.5 1247.6 417.6 1247.7 429.1C1247.71 429.845 1247.72 430.624 1247.73 431.432C1247.71 420.253 1247.69 408.331 1247.66 395.777C1247.56 400.103 1247.4 393.76 1247.4 380.1C1247.4 369.254 1247.5 362.824 1247.59 362.553C1247.54 332.433 1247.47 299.646 1247.4 265.399L1246.8 0.599609L1263.5 1L1249 1.59961L1248.4 6.2998C1248.37 6.52714 1248.34 7.01945 1248.31 7.80859C1248.34 7.09149 1248.37 6.61565 1248.4 6.39941L1249.1 1.59961H1320L1320.1 6.7998C1320.11 7.0751 1320.12 7.34949 1320.13 7.62109C1320.1 6.03014 1320.06 4.04781 1320 1.59961L1292.5 1.19922L1306.5 0.599609ZM1180 150.699C1184.6 150.599 1190.8 150.9 1199 152L1198.5 226.5L1178.8 226.8C1167 226.9 1159.4 227.4 1159.8 228C1160.2 228.5 1158.9 228.7 1156.8 228.5C1154.6 228.2 1153.4 228.4 1153.8 229C1154.2 229.6 1153.6 229.7 1152.2 229.3C1150.9 228.8 1149.7 229 1149.2 229.699C1148.8 230.299 1147.7 230.499 1146.7 230.199C1145.5 229.733 1145.17 229.899 1145.7 230.699C1146.2 231.599 1145.8 231.699 1144.2 231.199C1142.9 230.799 1142 231 1142 231.5C1142 232.1 1141.3 232.3 1140.5 232C1139.6 231.8 1139 231.9 1139 232.3C1139 232.7 1138 233.1 1136.7 233.3C1135.5 233.4 1134.4 233.9 1134.2 234.5C1134.1 235.1 1133.2 235.2 1132.2 234.8C1131 234.3 1130.7 234.4 1131.2 235.3C1131.7 236 1131.3 236.8 1130.5 237C1129.6 237.3 1128.4 237.2 1127.7 236.8C1126.9 236.333 1126.73 236.5 1127.2 237.3C1127.7 238.1 1127.2 238.799 1125.7 239.199C1124.5 239.599 1123.1 239.899 1122.7 239.699C1122.3 239.599 1122 240 1122 240.5C1122 241.1 1121.3 241.5 1120.5 241.5C1119.6 241.5 1118.7 242.2 1118.5 243C1118.2 243.9 1117.3 244.3 1116.5 244C1115.6 243.8 1114.4 244.299 1113.7 245.199C1112.7 246.699 1112.7 246.8 1114 246C1115 245.3 1115.2 245.4 1114.7 246.3C1114.3 247 1113.2 247.5 1112.2 247.5C1111.3 247.5 1108 250.1 1099.5 259L1105 254C1108.8 250.667 1108.3 251.333 1103.5 256C1099.6 259.9 1095.8 263.9 1094.9 265C1093.6 266.7 1093.6 266.8 1095 266C1095.79 265.607 1095.02 266.662 1093.19 268.504C1092.73 269.534 1091.83 271.343 1090.8 273.399C1090.73 273.536 1090.65 273.671 1090.57 273.807C1090.59 273.956 1090.54 274.042 1090.43 274.064C1090.11 274.631 1089.8 275.192 1089.48 275.73C1089.53 276.056 1089.46 276.197 1089.25 276.122C1088.13 278.043 1087.13 279.613 1086.75 280.048C1086.81 280.066 1086.89 280.054 1087 280C1087.5 279.8 1087.7 280.2 1087.5 281C1087.2 281.9 1086.5 282.2 1085.8 281.8C1084.9 281.2 1084.8 281.7 1085.5 283.5C1086.2 285.599 1086.1 285.9 1084.9 285C1083.8 284.3 1083.7 284.4 1084.2 285.8C1084.6 286.8 1084.5 287.5 1084 287.5C1083.4 287.5 1083.3 288.3 1083.7 289.3C1084.3 290.699 1084.1 290.8 1083 290C1081.8 289.3 1081.7 289.4 1082.2 290.8C1082.6 291.8 1082.5 292.5 1082 292.5C1081.4 292.5 1081.2 293.2 1081.5 294C1081.7 294.9 1081.7 296.8 1081.4 298.3C1080.9 300.399 1080.6 300.699 1079.9 299.5C1079.3 298.4 1079 298.8 1078.5 301C1078.1 302.7 1078.1 305.2 1078.6 306.5C1079.2 308.6 1079.1 308.9 1078 308C1076.9 307.2 1076.7 307.9 1077.3 311.5C1077.8 314.8 1077.7 315.5 1077 314C1076.2 312.6 1076.1 313.8 1076.4 318.5C1076.7 323.099 1076.6 324.099 1076 322C1075.6 320.4 1075.1 349.3 1075.1 387.8C1075.02 418.553 1074.8 445.07 1074.62 454.157C1074.77 452.837 1074.9 451.622 1075 450.6C1075.4 446.5 1075.7 463 1076 531.6H1001V158.6L1045.5 159.1L1023 158.5C1003.7 158.1 1005.8 158 1038 158C1058.6 157.9 1072.1 158.2 1060.5 159.1L1062.82 159.248C1062.7 159.23 1062.59 159.216 1062.5 159.199C1061.4 158.999 1063.8 158.799 1067.8 158.699C1071.7 158.699 1075 158.9 1075 159.399C1075 159.661 1073.98 159.835 1072.49 159.87L1074.5 160L1075 187.8C1075.4 212.099 1075.6 215.4 1077 214.5C1077.8 214 1078 213.6 1077.5 213.6C1076.9 213.6 1077.4 212.9 1078.5 212.1C1079.6 211.4 1080.1 210.299 1079.7 209.899C1079.3 209.399 1079.8 208.499 1080.7 207.699C1081.7 206.999 1081.9 206.7 1081.2 207C1080.5 207.3 1081.1 205.6 1082.6 203.3C1084 201 1086.2 198.2 1087.4 197C1088.6 195.9 1089.1 195.3 1088.5 195.5C1087.9 195.8 1088.2 195.3 1089.2 194.3C1090.2 193.3 1091.1 192.2 1091.2 191.8C1091.4 191.4 1091.8 191.2 1092.2 191.3C1092.6 191.4 1093 190.9 1093 190C1093 189.2 1093.6 188.3 1094.5 188C1095.3 187.8 1095.7 187.1 1095.5 186.5C1095.2 186 1095.5 185.7 1096.2 185.8C1096.9 185.9 1097.4 185.5 1097.2 184.8C1097.1 184.1 1097.5 183.7 1098.2 183.8C1098.9 183.9 1099.4 183.5 1099.2 182.8C1099.1 182.1 1099.4 181.7 1099.9 181.8C1100.4 181.899 1102.2 180.499 1104 178.5C1105.7 176.6 1106.8 175.7 1106.4 176.5C1106.1 177.4 1107.1 176.7 1108.6 175C1110.2 173.3 1111.2 172.5 1111 173.1C1110.7 173.7 1111.5 173 1112.8 171.6C1114.1 170.2 1114.8 169.7 1114.4 170.5C1114 171.4 1114.9 170.8 1116.3 169.3C1117.8 167.8 1119.6 166.5 1120.3 166.399H1122.2C1122.6 166.499 1122.8 166.2 1122.5 165.8C1122.2 165.4 1124.8 163.7 1128.2 162.1C1131.7 160.5 1137.4 158.2 1141 157C1144.5 155.7 1151.3 153.999 1156 153.199C1160.6 152.299 1166 151.499 1168 151.199C1169.9 150.999 1175.3 150.799 1180 150.699ZM1854.62 530.266C1854.68 530.313 1854.74 530.357 1854.8 530.399C1855.17 530.676 1855.45 530.895 1855.65 531.066C1855.87 530.843 1855.53 530.633 1854.7 530.3C1854.67 530.289 1854.65 530.277 1854.62 530.266ZM1477.24 529.308C1476.86 529.907 1475.84 530.224 1472.41 530.37C1475.38 530.362 1477.16 530.34 1477.2 530.3C1477.21 530.29 1477.22 529.973 1477.24 529.308ZM1645.88 521.858C1646.77 522.334 1647.64 522.795 1648.46 523.223C1647.94 522.851 1647.26 522.459 1646.5 522.1C1646.29 522.013 1646.09 521.933 1645.88 521.858ZM1415.81 519.114C1415.87 519.478 1415.9 519.881 1415.9 520.3C1415.9 520.317 1415.9 520.334 1415.9 520.351C1415.93 519.911 1415.89 519.489 1415.81 519.114ZM1065.87 483.675C1065.46 484.032 1064.99 484.323 1064.5 484.5C1063.1 485.1 1061.5 485.3 1061 485C1060.4 484.8 1059.9 485.1 1059.9 485.8C1059.9 486.5 1059.5 491 1059.1 495.699C1058.8 500.499 1058 504.9 1057.5 505.5C1056.8 506.3 1055.7 505.399 1053.9 502.399C1055.7 505.499 1056.8 506.4 1057.5 505.6C1058 505 1058.8 500.6 1059.2 495.8C1059.6 491 1059.9 486.499 1059.9 485.899C1060 485.2 1060.5 484.8 1061 485.1C1061.5 485.4 1063.1 485.1 1064.5 484.6C1065.01 484.395 1065.47 484.106 1065.87 483.675ZM1044.14 476.983C1045.3 478.842 1046.64 480.343 1048.7 482.399C1052.88 486.478 1053.99 488.28 1054 490.858C1054 490.839 1054 490.819 1054 490.8C1054 488.2 1052.9 486.5 1048.7 482.3C1046.6 480.244 1045.25 478.762 1044.1 476.916L1044.14 476.983ZM1831.45 486.556C1831.26 487.215 1831.64 487.929 1832.2 488.3C1832.9 488.7 1834.5 489.1 1835.7 489.3C1836.92 489.488 1838.93 489.233 1840.42 488.622C1839.63 488.717 1838.78 488.817 1838 488.899C1836.1 489.199 1833.7 489 1832.7 488.5C1831.87 488.041 1831.3 487.161 1831.45 486.556ZM1813.36 456.435C1814.02 456.487 1814.38 457.809 1815.1 461.399C1815.7 464.599 1816.9 468.9 1817.8 471.1C1818.7 473.3 1820.6 476.4 1822 478C1823.4 479.6 1826.2 481.8 1828.3 483C1830.28 484.17 1831.53 485.421 1831.54 486.17C1831.56 485.35 1830.3 484.092 1828.3 483C1826.2 481.8 1823.4 479.499 1822 477.899C1820.6 476.299 1818.8 473.3 1817.8 471.1C1816.9 468.9 1815.7 464.499 1815.1 461.399C1814.98 460.774 1814.86 460.218 1814.75 459.726C1814.24 457.332 1813.9 456.438 1813.36 456.435ZM1073.91 460.165C1073.6 461.912 1073.23 464.31 1072.9 466.8C1072.3 471.3 1071.7 476.4 1071.6 478C1071.4 479.7 1071 481.6 1070.6 482.3C1070.3 483 1069.5 483.5 1069 483.5C1068.4 483.5 1067.9 482.5 1067.7 479L1067.46 480.357L1067.6 481.399C1067.8 482.599 1068.5 483.6 1069 483.6C1069.5 483.6 1070.3 482.999 1070.7 482.399C1071.1 481.699 1071.5 479.699 1071.6 478.1C1071.7 476.5 1072.4 471.3 1073.1 466.6C1073.34 464.732 1073.62 462.47 1073.91 460.165ZM922.5 413.1C922.5 355.9 922.6 332.3 922.7 360.6C922.9 388.9 922.9 435.7 922.7 464.6C922.6 493.5 922.5 470.3 922.5 413.1ZM1019.87 437.023C1020.94 438.35 1022.82 440.173 1024.7 441.6C1027.2 443.5 1030.7 447.4 1032.5 450.1C1034.3 452.9 1037.5 460.1 1039.6 466.1C1040.82 469.615 1041.73 472.101 1042.61 474.061C1041.73 472.094 1040.83 469.585 1039.6 466C1037.5 460 1034.3 452.8 1032.5 450C1030.7 447.3 1027.1 443.5 1024.7 441.5C1022.87 440.109 1020.99 438.341 1019.87 437.023ZM1741 219.899C1735 219.599 1726.6 219.8 1721.5 220.5C1716.6 221.2 1709.3 222.6 1705.5 223.6C1701.7 224.6 1695.8 226.499 1692.5 227.699C1689.2 228.899 1685.9 230.299 1685.2 230.699C1684.6 231.199 1683.6 231.4 1683 231.1C1682.4 230.8 1682 231.1 1682 231.6C1682 232.1 1681.2 232.499 1680.2 232.399C1680.14 232.386 1680.08 232.375 1680.02 232.368C1679.72 232.629 1679.27 232.986 1678.71 233.418C1678.89 234.008 1678.59 234.397 1678 234.1C1677.96 234.078 1677.91 234.06 1677.87 234.044C1676.61 234.966 1674.99 236.107 1673.2 237.3C1669 240.1 1661.8 245.7 1657.3 249.8C1652.8 253.799 1649.1 257.699 1649.1 258.399C1649 259.099 1647.8 260.599 1646.2 261.699C1644.7 262.899 1644.2 263.5 1645 263.1C1645.8 262.7 1645.4 263.4 1644 264.8C1642.6 266.2 1640.8 268.199 1640 269.399C1639.2 270.499 1638.7 271.7 1639 272.1C1639.3 272.5 1638.7 273.199 1637.7 273.699C1636.8 274.199 1636.2 275.1 1636.5 275.6C1636.8 276.2 1636.3 276.9 1635.5 277.1C1634.7 277.4 1634.2 278.3 1634.5 279.1C1634.8 280 1634.5 280.4 1634 280.1C1633.4 279.9 1632.8 280.3 1632.5 281.1C1632.2 282 1632.3 283.199 1632.7 283.899C1633.3 284.799 1633.1 284.9 1632 284.1C1630.8 283.4 1630.7 283.5 1631.3 284.899C1631.7 285.899 1631.7 286.599 1631.2 286.6C1630.8 286.6 1629.9 287.7 1629.2 289.1C1628.6 290.5 1628.4 291.4 1629 291.1C1629.5 290.9 1629.8 291.3 1629.5 292.1C1629.2 293 1628.5 293.6 1628 293.6C1627.77 293.6 1627.6 293.702 1627.49 293.874C1627.47 294.013 1627.43 294.227 1627.37 294.508C1627.38 294.691 1627.42 294.892 1627.5 295.1C1627.8 296.014 1627.64 296.314 1626.99 296.002C1626.84 296.578 1626.66 297.243 1626.47 297.976C1626.7 298.885 1626.63 299.211 1626.17 299.066C1625.98 299.781 1625.77 300.541 1625.55 301.331C1625.65 301.868 1625.59 302.111 1625.34 302.101C1625.29 302.266 1625.25 302.432 1625.2 302.6C1624.44 305.509 1623.44 309.739 1622.61 313.695C1622.64 313.772 1622.67 313.841 1622.7 313.899C1623.18 314.62 1623.09 314.825 1622.44 314.518C1622.02 316.517 1621.66 318.415 1621.4 320C1620.6 325 1619.8 330.6 1619.6 332.5C1619.34 334.249 1619.31 332.862 1619.37 329.543C1619.19 334.361 1619.05 340.238 1619 345.899C1619 358.699 1619.3 365.5 1620 365.1C1620.59 364.804 1620.7 365.674 1620.41 367.326C1620.54 367.697 1620.72 368.574 1621 370C1621.5 372.2 1622.4 376.2 1623 379C1623.6 381.7 1625.3 387.3 1626.7 391.5C1628.1 395.6 1630.5 401.7 1632.1 405C1633.7 408.198 1634.9 411.096 1634.7 411.199C1634.7 411.2 1634.7 411.201 1634.7 411.202C1635.27 411.849 1635.57 412.467 1635.45 412.808C1635.66 412.961 1635.96 413.308 1636.3 413.8C1636.56 414.285 1637.32 415.428 1638.35 416.934C1638.36 416.922 1638.38 416.913 1638.4 416.899C1638.9 416.5 1639 416.7 1638.7 417.399C1638.69 417.409 1638.69 417.421 1638.69 417.432C1639.95 419.267 1641.56 421.547 1643.2 423.8C1646.4 428.3 1651.5 434.599 1654.7 437.899C1654.99 438.189 1655.3 438.494 1655.64 438.814C1656.02 438.591 1656.12 438.688 1655.91 439.072C1659.29 442.284 1664.6 446.776 1668.5 449.699C1672.9 452.999 1681 457.9 1686.5 460.6C1688.27 461.499 1689.81 462.308 1691.04 462.976C1692.01 462.366 1692.25 462.48 1691.69 463.325C1692.32 463.672 1692.85 463.972 1693.26 464.217C1694.46 463.864 1694.72 464.099 1694.23 464.858C1694.31 464.939 1694.3 464.967 1694.18 464.944C1693.71 465.803 1694.02 465.891 1695.2 465.399C1696.3 465 1697.1 465.1 1697.2 465.699C1697.4 466.299 1698.7 466.9 1700.2 467C1701.8 467.1 1703 467.499 1703 467.899C1703 468.299 1704.2 468.299 1705.7 467.899C1708 467.399 1708.3 467.5 1707.5 468.6C1706.7 469.8 1707 470 1709.3 469.6C1710.9 469.4 1712.3 469.499 1712.6 469.899C1712.8 470.299 1721.2 470.699 1731.2 470.699C1745.6 470.699 1751.6 470.299 1759.5 468.699C1765 467.599 1773.1 465.4 1777.5 463.8C1781.9 462.2 1787.7 459.6 1790.5 458.1C1793.2 456.6 1798.2 453.5 1801.5 451.3C1804.8 449 1811.1 443.799 1815.5 439.699C1817.12 438.152 1818.51 436.877 1819.57 435.947C1819.33 435.993 1819.03 436.113 1818.7 436.3C1818.1 436.7 1819.4 434.9 1821.7 432.3C1824.1 429.7 1828 424.599 1830.4 420.899C1832.8 417.099 1836.6 410.499 1838.8 406.1C1841 401.7 1843.9 394.5 1845.3 390.1C1846.7 385.7 1848.6 378.1 1849.6 373.1C1851 366.5 1851.4 359.5 1851.4 347.1C1851.4 337.7 1850.8 326.7 1850.1 322.6C1849.4 318.5 1847.5 310.4 1845.9 304.6C1844.3 298.8 1840.3 288.7 1837 282.1C1833.8 275.5 1829.5 267.9 1827.4 265.1C1825.4 262.4 1820.5 256.8 1816.6 252.8C1812.7 248.7 1806.1 243.1 1802 240.3C1797.9 237.5 1791.8 233.9 1788.5 232.3C1785.2 230.7 1779.7 228.3 1776.2 227C1772.8 225.7 1765.8 223.7 1760.8 222.5C1755.7 221.4 1746.8 220.199 1741 219.899ZM729 218.699C724.8 218.799 718.5 219.199 715 219.699C711.4 220.199 704.9 221.499 700.5 222.699C696.1 223.799 689.1 226.199 685 227.899C680.8 229.599 673.4 233.7 668.5 237C663.5 240.4 655.9 246.7 651.5 251.1C647 255.5 641.1 262.5 638.3 266.6C635.5 270.7 631.4 277.7 629.2 282.1C627 286.5 623.9 294.4 622.1 299.6C620.4 304.8 618.3 313.1 617.3 318.1C616.1 324.5 615.6 332.1 615.6 344.6C615.6 357.4 616 364.5 617.3 371.1C618.3 376.1 620.3 383.5 621.6 387.6C623 391.7 626.1 399.4 628.6 404.6C631.1 409.8 635.2 417.2 637.8 421.1C640.3 425 645.4 431.2 649.1 435.1C652.7 439 658.1 444 661.1 446.3C664 448.6 669.5 452.3 673.2 454.5C676.9 456.8 683.7 460.1 688.2 462C692.8 463.9 699.4 466.099 703 466.899C706.5 467.699 711.7 468.7 714.5 469.1C717.2 469.4 724.4 469.8 730.5 469.8C736.5 469.8 745.3 469.3 750 468.6C754.6 468 763.2 465.9 769 464C774.7 462.1 782.8 458.6 787 456.3C791.1 454 797.6 449.6 801.5 446.5C805.3 443.4 811.4 437.8 815 434C818.6 430.2 823.4 424.4 825.6 421.1C827.9 417.8 831.5 411.5 833.7 407.1C835.9 402.7 838.9 395.5 840.4 391.1C841.9 386.7 844.1 378.8 845.3 373.6C847 365.8 847.4 360.6 847.4 345.1C847.4 330.8 847 323.7 845.6 316.6C844.6 311.4 842.4 303.1 840.8 298.1C839.2 293.1 836.4 286.2 834.6 282.6C832.8 279 829.1 272.7 826.4 268.6C823.7 264.5 818.3 257.8 814.3 253.6C810.4 249.5 803.7 243.599 799.3 240.399C795 237.299 787.2 232.6 782 230.1C776.7 227.5 768.4 224.3 763.5 223.1C758.5 221.8 750.4 220.299 745.5 219.699C740.5 219.099 733.1 218.699 729 218.699ZM1691.28 463.953C1690.78 464.792 1691.08 464.841 1692.58 464.432C1692.18 464.291 1691.74 464.129 1691.28 463.953ZM1664.67 448.142C1665.85 449.32 1667.99 451.06 1670.5 452.8C1674.3 455.5 1680.2 459.1 1683.5 460.8C1685.85 462.016 1687.69 462.767 1689 463.06C1688.15 462.714 1687.3 462.354 1686.5 462C1683.7 460.8 1677.4 457.199 1672.5 453.899C1670.28 452.481 1667.5 450.413 1664.67 448.142ZM1479.5 345.1C1479.5 242.2 1479.6 200 1479.7 251.1C1479.9 302.2 1479.9 386.4 1479.7 438.1C1479.6 489.8 1479.5 448 1479.5 345.1ZM1810.8 455.6C1810.89 457.488 1811.04 457.901 1811.91 457.285C1811.04 457.783 1810.88 457.36 1810.8 455.6ZM1655.71 440.291C1655.99 441.152 1656.94 442.326 1658.5 443.6C1659.8 444.761 1661.14 445.642 1662.06 445.988C1659.76 444.052 1657.54 442.071 1655.71 440.291ZM1819.34 437.203C1818.71 437.926 1818.1 438.605 1817.6 439.1C1816.6 440.2 1814.7 442.5 1813.5 444.1C1814.8 442.5 1816.7 440.099 1817.9 438.899C1818.47 438.283 1818.97 437.689 1819.34 437.203ZM1649.89 434.026C1650.36 435.14 1651.28 436.477 1652.2 437.399C1652.89 438.037 1653.61 438.532 1654.22 438.797C1652.86 437.379 1651.38 435.742 1649.89 434.026ZM1563.36 434.196C1564.24 436.09 1565.01 437.717 1565.4 438.5C1565.42 438.546 1565.45 438.594 1565.47 438.647C1565.07 437.786 1564.73 437.012 1564.5 436.399C1564.16 435.52 1563.76 434.764 1563.36 434.196ZM1016.26 427.362C1017.43 428.814 1018 430.051 1018 431.1C1018 431.33 1018.01 431.579 1018.04 431.84C1018.01 431.54 1018 431.257 1018 431C1018 430.02 1017.44 428.815 1016.26 427.362ZM1641.59 423.74C1641.88 424.187 1642.18 424.641 1642.5 425.1C1644.27 427.651 1646.05 429.8 1647.14 430.8C1645.06 428.294 1643.09 425.804 1641.59 423.74ZM1560.46 427.752C1560.72 428.39 1560.97 428.979 1561.2 429.5C1561.23 429.56 1561.25 429.62 1561.28 429.68C1561.15 429.25 1560.99 428.813 1560.8 428.399C1560.69 428.168 1560.58 427.952 1560.46 427.752ZM1014.9 425.837C1014.42 425.348 1013.89 424.836 1013.3 424.3C1011.24 422.401 1008.76 419.273 1007.18 416.777C1008.7 419.267 1011.23 422.393 1013.4 424.399C1013.95 424.897 1014.45 425.377 1014.9 425.837ZM1075.5 381.1C1075.5 347 1075.6 333.3 1075.7 350.6C1075.9 367.9 1075.9 395.8 1075.7 412.6C1075.6 429.4 1075.5 415.2 1075.5 381.1ZM1635.55 414.139C1635.7 414.591 1635.93 415.106 1636.2 415.6C1636.39 415.897 1636.6 416.158 1636.82 416.372C1636.29 415.479 1635.85 414.716 1635.55 414.139ZM1554.93 412.327C1554.98 411.889 1554.91 411.664 1554.74 411.679C1554.81 411.899 1554.87 412.116 1554.93 412.327ZM1002 281.6C1002 361.9 1002.3 403.8 1003 404.1C1003.5 404.4 1004 406 1004 407.6C1004 407.866 1004.03 408.184 1004.09 408.543C1004.03 408.15 1004 407.797 1004 407.5C1004 405.9 1003.5 404.3 1003 404C1002.3 403.7 1002 361.913 1002 159.599V281.6ZM1625.05 390.438C1625.71 392.946 1627.03 396.67 1628.5 400.1C1629.17 401.698 1629.88 403.266 1630.58 404.686C1629.97 403.383 1629.33 401.952 1628.7 400.5C1627.59 397.891 1626.26 394.171 1625.05 390.438ZM1548.78 388.904C1549.1 390.149 1549.48 391.686 1549.9 393.5C1550.46 395.877 1551.14 398.583 1551.86 401.3C1551.56 399.91 1551.24 398.451 1550.9 397C1550.12 393.652 1549.34 390.697 1548.78 388.904ZM1546.44 374.177C1546.49 374.897 1546.55 375.447 1546.6 375.8C1546.88 377.267 1547.03 378.574 1547.08 379.436C1547.18 378.772 1547.19 377.892 1547.1 376.899C1547.03 375.373 1546.74 374.378 1546.44 374.177ZM1405.5 290.6C1405.5 217.7 1405.6 187.8 1405.7 224.1C1405.9 260.4 1405.9 320 1405.7 356.6C1405.6 393.2 1405.5 363.5 1405.5 290.6ZM1478.4 339C1478.4 322.5 1478.5 316 1478.7 324.5C1478.9 333.1 1478.9 346.6 1478.7 354.5C1478.5 362.499 1478.4 355.499 1478.4 339ZM1619.3 345.1C1619.3 340.7 1619.5 338.7 1619.7 340.6C1619.9 342.5 1619.9 346.1 1619.7 348.6C1619.5 351.1 1619.3 349.5 1619.3 345.1ZM1621.1 315.103C1620.72 315.946 1620.37 317.493 1620 319.899C1619.82 321.106 1619.66 323.358 1619.52 326.249C1619.78 323.017 1620.38 318.763 1621.1 315.103ZM1623.33 306.213C1623.02 306.67 1622.71 307.76 1622.5 309.1C1622.49 309.195 1622.47 309.291 1622.46 309.387C1622.74 308.346 1623.03 307.273 1623.33 306.213ZM922.3 302.1C922.3 298.2 922.5 296.5 922.7 298.1C922.9 299.7 922.9 302.9 922.7 305.1C922.5 307.3 922.3 306 922.3 302.1ZM1624.59 301.798C1623.87 301.493 1623.72 302.057 1624 303.8C1624 303.806 1624 303.813 1624 303.819C1624.2 303.118 1624.4 302.439 1624.59 301.798ZM1625.52 298.763C1624.96 298.541 1624.88 298.877 1625.16 299.912C1625.29 299.496 1625.41 299.111 1625.52 298.763ZM1626.61 295.803C1625.97 295.504 1625.86 295.832 1626.17 296.959C1626.33 296.544 1626.48 296.157 1626.61 295.803ZM1552 291C1551.85 291.609 1551.71 292.237 1551.55 292.878C1551.8 291.922 1552.02 290.977 1552.23 290.063L1552 291ZM1554.96 279.882C1554.89 280.12 1554.82 280.36 1554.76 280.6C1554.99 280.597 1555.05 280.371 1554.96 279.882ZM1087.7 277.232C1087.53 277.49 1087.36 277.782 1087.2 278.1C1086.81 278.833 1086.6 279.439 1086.61 279.774C1086.77 279.286 1087.15 278.396 1087.7 277.232ZM922.5 243.6C922.5 215.3 922.6 203.6 922.7 217.6C922.9 231.6 922.9 254.8 922.7 269.1C922.6 283.4 922.5 271.9 922.5 243.6ZM1564.68 254.611C1564.99 254.687 1565.06 254.52 1564.95 254.087C1564.86 254.264 1564.77 254.44 1564.68 254.611ZM1565.67 252.608C1565.99 252.694 1566.07 252.517 1565.94 252.055C1565.85 252.241 1565.76 252.426 1565.67 252.608ZM1566.91 249.986C1566.81 250.192 1566.72 250.395 1566.62 250.594C1566.97 250.698 1567.06 250.521 1566.91 249.986ZM909.2 233.8C906.5 232.7 905.9 232.8 905.5 234C905.2 234.9 905 236.7 905 238C905 239.4 904.6 240.5 904.2 240.5C904.101 240.5 903.874 240.25 903.55 239.797C903.91 240.312 904.169 240.599 904.3 240.6C904.7 240.6 905 239.5 905 238.1C905 236.7 905.2 234.9 905.5 234.1C905.9 232.8 906.5 232.8 909.3 233.899C910.999 234.499 912.699 235.399 913 235.699C913.165 235.865 913.514 236.09 913.927 236.31C913.473 236.05 913.117 235.775 913 235.6C912.7 235.3 911 234.5 909.2 233.8ZM1663 234.6C1663 235.2 1664 236.099 1665.2 236.699C1666.5 237.399 1667.7 237.5 1668 237C1668.3 236.5 1669.7 235.999 1671.2 235.899C1671.54 235.857 1671.93 235.78 1672.34 235.677C1672.06 235.724 1671.78 235.767 1671.5 235.8C1669.8 235.9 1668.3 236.399 1668 236.899C1667.7 237.399 1666.5 237.299 1665.2 236.699C1664 236.099 1663 235.1 1663 234.6ZM918.165 236.137C918.005 236.407 917.847 236.601 917.7 236.699C917.044 237.074 915.948 237.098 915.154 236.853L915 236.8L915.154 236.869C915.948 237.187 917.044 237.081 917.7 236.8C917.843 236.705 917.999 236.473 918.165 236.137ZM1641.67 189.562C1642.06 192.99 1643.28 198.1 1644.4 201.1C1645.7 204.4 1648.4 210.5 1650.4 214.6C1652.7 219.199 1656.4 224.399 1659.8 227.899C1662.4 230.588 1664.23 232.854 1664.33 233.509C1664.47 233.026 1662.65 230.661 1659.8 227.899C1656.4 224.299 1652.7 219.2 1650.5 214.6C1648.4 210.5 1645.7 204.4 1644.5 201.1C1643.28 198.006 1642.06 192.978 1641.67 189.561V189.562ZM1579.58 228.212C1578.51 229.794 1577.42 231.438 1576.4 233C1576.37 233.05 1576.34 233.1 1576.3 233.15C1576.91 232.324 1577.55 231.396 1578.2 230.399C1578.69 229.65 1579.15 228.915 1579.58 228.212ZM1587.22 217.296C1586.79 217.991 1586.03 219.078 1585.1 220.3C1584.71 220.81 1584.19 221.531 1583.57 222.402C1584.06 221.899 1584.96 220.806 1585.9 219.5C1586.69 218.473 1587.14 217.665 1587.22 217.296ZM888.078 206.425C889.204 209.864 890.46 213.342 891.4 215.6C891.642 216.18 891.933 216.851 892.258 217.591C891.927 216.812 891.636 216.106 891.4 215.5C890.466 213.32 889.222 209.86 888.078 206.425ZM1252.4 193.6C1254.5 201.483 1257.09 208.57 1258.49 210.587C1257.09 208.57 1254.49 201.455 1248.8 180.1L1252.4 193.6ZM879.648 183.305C879.836 183.751 879.992 184.189 880.1 184.6C880.7 186.5 881.8 189 882.5 190.1C882.819 190.601 883.343 191.851 883.954 193.507C883.348 191.835 882.821 190.55 882.5 190C881.8 188.9 880.7 186.5 880.1 184.5C879.979 184.117 879.825 183.714 879.648 183.305ZM1641.6 188.899C1641.1 183.9 1640.7 182.7 1639.5 183.1C1640.7 182.8 1641.1 183.9 1641.6 188.899ZM1642.65 172.024C1641.63 172.921 1640.68 173.858 1640.1 174.6C1638.7 176 1637.9 178.2 1637.9 180.3C1637.99 182.481 1638.3 183.291 1639.11 183.196C1638.3 183.287 1638 182.455 1638 180.1C1638 177.4 1638.8 175.799 1641.8 172.899C1642.09 172.607 1642.37 172.312 1642.65 172.024ZM875.102 176.807C875.38 177.363 876.161 178.26 877 179.1C877.501 179.6 878.084 180.391 878.618 181.283C878.087 180.377 877.512 179.558 877 179C876.138 178.21 875.431 177.366 875.102 176.807ZM878.2 167.399C878.6 170.499 879.5 173.4 880.2 173.8C880.31 173.841 880.389 173.888 880.439 173.938C880.412 173.856 880.334 173.776 880.2 173.699C879.5 173.299 878.6 170.5 878.2 167.3C878.184 167.182 878.168 167.065 878.153 166.95C878.168 167.097 878.184 167.247 878.2 167.399ZM919.258 160.771C919.808 161.344 920.477 162.292 921.078 163.281C921.023 163.164 920.963 163.038 920.9 162.899C920.599 162.117 919.971 161.335 919.258 160.771ZM884.663 160.727C883.333 160.823 882.397 160.915 882 161C881.295 161.101 880.538 161.226 879.897 161.326C880.874 161.219 882.204 161.076 883.5 160.899C883.897 160.845 884.288 160.786 884.663 160.727ZM1405.7 159.5C1405.3 157.4 1405.4 157.399 1442.5 157.699C1466.8 157.899 1479.6 158.4 1479.3 159C1479.1 159.7 1466.8 160 1444.5 159.8C1422.9 159.6 1409.2 159.9 1408 160.5C1406.3 161.4 1405.9 161.2 1405.7 159.5ZM913.083 159.781C915.614 159.884 917.502 160.023 918.315 160.185C918.142 160.105 917.969 160.042 917.8 160C917.254 159.874 915.529 159.801 913.083 159.781ZM1320.29 47.1191C1320.08 64.7973 1320 95.2495 1320 145.1L1320.01 121.102C1320.05 90.6796 1320.15 64.3744 1320.29 47.1191ZM1433.5 6.39941C1434.6 6.09943 1438.5 5.99961 1442.2 6.09961C1445.8 6.09963 1449.1 6.49981 1449.5 6.7998C1449.9 7.19967 1450.8 7.29948 1451.6 7.09961C1452.4 6.79961 1453.6 7 1454.2 7.5C1454.9 7.89997 1456.6 8.39941 1458 8.39941C1459.4 8.49941 1460.6 8.99961 1460.7 9.59961C1460.9 10.1995 1461.4 10.3996 1462 10.0996C1462.5 9.89962 1463.7 10.3994 1464.7 11.3994C1465.6 12.3994 1466.5 12.9994 1466.7 12.8994C1466.8 12.7993 1467.4 12.5996 1468 12.5996C1468.5 12.5996 1468.8 13.0996 1468.5 13.5996C1468.2 14.1996 1468.4 14.5996 1469 14.5996C1469.5 14.5996 1470.1 14.4994 1470.2 14.3994C1470.4 14.3008 1471.8 15.6003 1473.5 17.3994C1475.1 19.1994 1476.8 20.2993 1477.3 19.8994C1477.7 19.4994 1478.1 19.7996 1478.1 20.5996C1478.1 21.4996 1479.2 23.1994 1480.5 24.3994C1481.9 25.5992 1482.7 26.8993 1482.2 27.0996C1481.8 27.3996 1482.3 27.8996 1483.2 28.0996C1484.2 28.3996 1484.8 29.0996 1484.5 29.5996C1484.2 30.1996 1484.3 30.5996 1484.7 30.5996C1485.2 30.6004 1486.5 32.8001 1487.7 35.5996C1489 38.3993 1489.8 40.999 1489.5 41.3994C1489.2 41.7994 1489.6 42.7996 1490.2 43.5996C1491.1 44.4999 1491.5 48.3999 1491.5 55.0996C1491.5 63.0993 1491.1 65.7994 1489.7 67.8994C1488.8 69.4994 1488.5 70.3 1489.2 70C1490 69.6001 1489.8 70 1489 71C1488.2 71.9997 1487.9 72.699 1488.3 72.6992C1488.8 72.6992 1488.4 73.2996 1487.6 74.0996C1486.7 74.9996 1486.2 76.0996 1486.5 76.5996C1486.8 77.1996 1486.6 77.7994 1486.1 77.8994C1485.6 77.9996 1485 78.7002 1484.8 79.5C1484.68 79.9285 1484.03 80.9548 1483.16 82.1455C1483.48 81.8179 1483.68 81.6245 1483.7 81.5996C1483.8 81.6019 1483 83.0013 1481.7 84.7998C1481.04 85.7952 1479.94 87.1247 1478.78 88.4209C1478.69 88.7344 1478.7 88.9704 1478.8 89.0996C1479.2 89.6996 1479 89.7993 1478.2 89.3994C1478.13 89.3582 1478.05 89.3245 1477.97 89.2959C1477.29 90.0279 1476.61 90.7218 1476 91.2998C1475.86 91.4348 1475.7 91.5751 1475.53 91.7236C1475.56 91.8661 1475.62 91.9941 1475.7 92.0996C1476.2 92.5994 1475.9 92.6996 1475.2 92.2998C1475.13 92.255 1475.04 92.2322 1474.92 92.2285C1472.65 94.0383 1468.82 96.497 1465.7 98.0996C1465.48 98.2152 1465.25 98.3251 1465.02 98.4375C1464.69 98.8284 1464.57 99.0983 1464.7 99.1992C1465.17 99.4782 1464.68 99.4106 1463.72 99.0781C1463.3 99.283 1462.88 99.48 1462.48 99.666C1462.48 99.6771 1462.49 99.688 1462.5 99.6992C1463.2 100.799 1463.1 100.999 1462.2 100.399C1462 100.285 1461.74 100.196 1461.45 100.131C1459.56 100.964 1458.12 101.5 1457.7 101.5C1457.28 101.5 1458.12 100.926 1459.76 100.013C1459.5 100.028 1459.24 100.055 1459 100.1C1457.7 100.5 1457.3 101.1 1457.7 101.8C1458.3 102.7 1457.8 102.799 1456 102.199C1454.3 101.699 1453.3 101.9 1452.8 102.8C1452.4 103.5 1452 103.7 1452 103.1C1452 103.054 1451.97 103.01 1451.91 102.967C1451.57 103.305 1450.25 103.613 1448.7 103.699C1446.9 103.699 1444.1 103.9 1442.5 104C1440.8 104.1 1436.5 103.599 1433 102.899C1430.75 102.4 1427.65 101.395 1424.76 100.297C1424.13 100.293 1423.68 100.359 1423.5 100.5C1423 100.8 1422.8 100.7 1423.2 100.1C1423.28 99.994 1423.31 99.8663 1423.3 99.7236C1422.1 99.2418 1420.97 98.7569 1420 98.2998C1419.38 97.9891 1418.7 97.611 1418 97.1846C1417.88 97.213 1417.78 97.2514 1417.7 97.2998C1417 97.6998 1416.8 97.5996 1417.2 97.0996C1417.29 97.0137 1417.31 96.8956 1417.29 96.752C1415.02 95.3227 1412.49 93.4532 1410.33 91.6143C1409.94 91.4865 1409.65 91.4413 1409.5 91.5C1408.9 91.6999 1408.8 91.4 1409.2 91C1409.27 90.9316 1409.31 90.8453 1409.34 90.7461C1408.79 90.2526 1408.27 89.7684 1407.8 89.2998C1406.84 88.37 1405.9 87.3538 1405 86.2939C1404.79 86.2743 1404.62 86.3055 1404.5 86.3994C1403.9 86.7994 1403.8 86.5994 1404.2 85.8994C1404.28 85.7932 1404.33 85.6743 1404.38 85.5479C1403.52 84.4955 1402.7 83.4088 1401.96 82.3242C1401.9 82.3459 1401.85 82.3705 1401.8 82.3994C1400.93 82.866 1400.77 82.6994 1401.3 81.8994C1401.36 81.7999 1401.39 81.6719 1401.41 81.5205C1400.45 80.0631 1399.63 78.6271 1399 77.2998C1398.53 76.3075 1398.08 75.3228 1397.68 74.4121C1397.3 74.7052 1397.23 74.4629 1397.4 73.7744C1397.14 73.1711 1396.9 72.6094 1396.7 72.1123C1396.37 72.1752 1396.28 71.9314 1396.42 71.3799C1396.16 70.6883 1396 70.1981 1396 70C1396 69.8044 1396.23 70.0525 1396.61 70.6367C1396.67 70.0477 1396.4 69.5996 1396 69.5996C1395.4 69.5996 1395.2 68.4996 1395.5 67.0996C1395.8 65.7998 1395.7 64.6 1395.2 64.5996C1394.8 64.5996 1394.5 60.3996 1394.5 55.0996C1394.5 49.8996 1394.8 45.5996 1395.2 45.5996C1395.7 45.5992 1395.8 44.4994 1395.5 43.0996C1395.2 41.6996 1395.4 40.8996 1396 41.0996C1396.5 41.3996 1397.2 40.4996 1397.5 39.0996C1397.59 38.6925 1397.65 38.2462 1397.67 37.8037C1397.57 38.0492 1397.48 38.2825 1397.4 38.5C1396.7 40.4997 1396.1 41.2995 1396 40.2998C1396 39.5752 1396.58 37.7482 1397.43 35.6934C1397.39 35.5828 1397.35 35.4835 1397.3 35.3994C1396.77 34.6084 1396.93 34.4371 1397.77 34.8848C1398 34.3589 1398.25 33.8262 1398.5 33.2998C1398.74 32.8024 1399.03 32.2521 1399.36 31.667C1399.31 31.572 1399.26 31.482 1399.2 31.3994C1398.74 30.577 1398.87 30.4246 1399.73 31.0146C1399.98 30.6013 1400.23 30.1749 1400.5 29.7412C1400.38 29.1443 1400.52 28.8951 1400.93 29.0693C1401.31 28.482 1401.71 27.8862 1402.11 27.2969C1402.16 26.9837 1402.22 26.6692 1402.3 26.3994C1402.4 25.6995 1403 25.1998 1403.5 25.2998C1403.52 25.305 1403.53 25.3073 1403.55 25.3096C1404.24 24.3958 1404.94 23.5393 1405.6 22.7998C1408.1 19.901 1410.3 17.502 1410.6 17.5C1410.65 17.5 1410.57 17.6677 1410.38 17.9707C1411.26 17.1238 1412.04 16.5996 1412.5 16.5996C1413.3 16.5996 1413.8 16.2994 1413.6 15.8994C1413.4 15.4995 1414 15.0996 1414.9 15.0996C1415.8 15.0995 1416.4 14.5993 1416.2 13.8994C1416.1 13.1995 1416.4 12.8996 1417 13.0996C1417.5 13.3996 1418.6 13.0994 1419.3 12.3994C1420 11.6994 1421.2 10.9998 1422 10.7998C1422.8 10.5998 1423.8 9.99979 1424.2 9.2998C1424.6 8.6999 1425 8.49966 1425 8.89941C1425 9.29941 1425.6 9.29941 1426.2 8.89941C1426.9 8.49947 1427.7 8.09961 1428 8.09961C1428.3 7.9996 1429.2 7.69941 1430 7.39941C1430.8 6.99943 1432.4 6.59941 1433.5 6.39941ZM1462.4 98.6104C1462.14 98.5674 1462.03 98.6276 1462.05 98.7949C1462.16 98.7347 1462.28 98.6719 1462.4 98.6104ZM1399.3 75.5752C1399.54 76.0203 1399.81 76.4973 1400.1 76.9971C1399.85 76.4525 1399.57 75.9723 1399.3 75.5752ZM1397.78 72.6465C1398.14 71.6966 1398.01 71.4818 1397.33 71.8301C1397.47 72.0815 1397.62 72.3547 1397.78 72.6465ZM1399.67 33.1309C1399.4 33.7174 1399.13 34.336 1398.86 34.9531C1399.13 34.8041 1399.36 34.5179 1399.5 34.0996C1399.61 33.814 1399.66 33.4774 1399.67 33.1309ZM1400.83 30.7334C1400.68 30.9952 1400.54 31.2367 1400.43 31.4531C1401.07 31.8025 1401.19 31.6391 1400.83 30.7334ZM1275 1C1281.9 1 1284.6 1.0998 1281 1.2998C1277.4 1.4998 1271.8 1.4998 1268.5 1.2998C1265.2 1.0998 1268.1 1 1275 1ZM1278 0C1295.3 0 1302.5 0.199805 1294 0.299805C1285.5 0.499805 1271.3 0.499805 1262.5 0.299805C1253.7 0.199805 1260.7 0 1278 0Z" fill="url(#paint0_linear_9_26)"/>
<defs>
<linearGradient id="paint0_linear_9_26" x1="521" y1="271" x2="1521" y2="271" gradientUnits="userSpaceOnUse">
<stop stop-color="white"/>
<stop offset="1" stop-color="#00BAF2"/>
</linearGradient>
</defs>
</svg>
